#!OML:ASF H:\Martial Arts Walks\Project 1\Capture day 1\Session 1\male.ASF
:FULLY-SPECIFIED
:DEGREES
967
root -6.51446 14.9858 15.657 5.73211 39.2153 -3.49203
lowerback 14.1124 1.38335 -6.23723
upperback -1.75919 0.938946 1.89737
thorax -10.0233 0.868377 5.39896
lowerneck 2.24679 -11.2495 -12.8658
upperneck 2.15471 -15.7338 15.7414
head 2.56436 -7.88618 6.29099
rclavicle -1.60767e-014 -1.0138e-014
rhumerus -22.6936 27.0921 -61.2225
rradius 98.0695
rwrist 1.98879
rhand -24.9108 -41.8107
rfingers 7.12502
rthumb 1.59768 -71.7845
lclavicle -1.60767e-014 -1.0138e-014
lhumerus -32.7744 -32.2195 89.1996
lradius 105.202
lwrist 37.5251
lhand -6.04539 6.81872
lfingers 7.12502
lthumb 19.7887 35.8314
rfemur -51.743 -22.439 15.402
rtibia 56.5041
rfoot -9.03646 9.65099
rtoes -2.28368
lfemur -20.2655 11.5542 -1.3517
ltibia 56.2511
lfoot -23.3592 26.0398
ltoes -8.68501
968
root -6.50131 14.9911 15.7177 5.72805 38.283 -3.27011
lowerback 14.0868 1.39511 -6.21941
upperback -1.79274 0.955207 1.86327
thorax -10.0469 0.87559 5.34755
lowerneck 2.06633 -11.1588 -12.8115
upperneck 2.49445 -15.6124 15.465
head 2.64826 -7.81448 6.18996
rclavicle -4.13472e-014 3.06128e-014
rhumerus -22.507 27.1028 -61.1295
rradius 97.8315
rwrist 1.94114
rhand -24.9313 -41.8592
rfingers 7.12502
rthumb 1.57789 -71.8331
lclavicle -4.13472e-014 3.06128e-014
lhumerus -32.8952 -32.2881 89.4776
lradius 105.284
lwrist 37.3589
lhand -6.26576 6.81092
lfingers 7.12502
lthumb 19.5769 35.8453
rfemur -51.8309 -22.2696 15.5432
rtibia 56.695
rfoot -9.13335 10.4489
rtoes -1.276
lfemur -19.0662 11.2783 -1.29049
ltibia 55.6171
lfoot -23.4185 25.8196
ltoes -8.97101
969
root -6.4918 14.996 15.7741 5.75065 37.3975 -2.97941
lowerback 14.155 1.39535 -6.31642
upperback -1.8293 0.92994 1.83049
thorax -10.1255 0.871636 5.37333
lowerneck 1.99307 -10.9986 -12.7098
upperneck 2.64265 -15.3862 15.1935
head 2.64083 -7.69847 6.1041
rclavicle 6.21202e-016 9.74045e-015
rhumerus -22.3168 27.1422 -61.0467
rradius 97.6418
rwrist 1.82336
rhand -24.9418 -41.7342
rfingers 7.12502
rthumb 1.5678 -71.7082
lclavicle 6.21202e-016 9.74045e-015
lhumerus -32.9297 -32.3167 89.7099
lradius 105.297
lwrist 37.2048
lhand -6.51049 6.85376
lfingers 7.12502
lthumb 19.3416 35.9119
rfemur -51.8878 -22.077 15.578
rtibia 56.9141
rfoot -9.19411 11.1691
rtoes -0.0661766
lfemur -17.8391 10.8009 -1.24941
ltibia 54.9408
lfoot -23.6286 25.366
ltoes -9.36597
970
root -6.47884 14.9898 15.8158 5.87449 36.4791 -2.67467
lowerback 14.1796 1.38482 -6.33416
upperback -1.87998 0.903713 1.76861
thorax -10.1916 0.861525 5.32168
lowerneck 1.9987 -10.8359 -12.5562
upperneck 2.64973 -15.1505 14.9394
head 2.57613 -7.58267 6.02462
rclavicle 4.96962e-015 7.55382e-015
rhumerus -22.0651 27.1779 -60.929
rradius 97.4658
rwrist 1.76556
rhand -24.7873 -41.6231
rfingers 7.12502
rthumb 1.71696 -71.5959
lclavicle 4.96962e-015 7.55382e-015
lhumerus -32.8908 -32.3053 89.8798
lradius 105.308
lwrist 37.084
lhand -6.52332 6.64761
lfingers 7.12502
lthumb 19.3292 35.707
rfemur -52.1623 -21.8942 15.6228
rtibia 57.1745
rfoot -9.13089 11.9533
rtoes 1.29514
lfemur -16.773 10.283 -1.32395
ltibia 54.3266
lfoot -23.5342 25.1322
ltoes -10.0352
971
root -6.46524 14.9895 15.8711 5.9162 35.6604 -2.36226
lowerback 14.1421 1.38423 -6.45259
upperback -1.85399 0.881335 1.73348
thorax -10.1398 0.85378 5.35576
lowerneck 1.87442 -10.7192 -12.4842
upperneck 2.71846 -14.9747 14.7194
head 2.5691 -7.49095 5.95247
rclavicle 2.34317e-014 -2.09718e-014
rhumerus -21.8679 27.1138 -60.837
rradius 97.3016
rwrist 1.74094
rhand -24.7004 -41.4857
rfingers 7.12502
rthumb 1.80088 -71.4579
lclavicle 2.34317e-014 -2.09718e-014
lhumerus -32.8103 -32.3669 90.0436
lradius 105.343
lwrist 37.051
lhand -6.66884 6.6928
lfingers 7.12502
lthumb 19.1893 35.7661
rfemur -52.2506 -21.7836 15.6132
rtibia 57.4652
rfoot -9.12637 12.6789
rtoes 2.83704
lfemur -15.604 9.70983 -1.35636
ltibia 53.6933
lfoot -23.3674 24.8361
ltoes -10.9634
972
root -6.45012 14.9807 15.9166 6.00171 34.8291 -2.05546
lowerback 14.143 1.38237 -6.51163
upperback -1.89826 0.861118 1.67287
thorax -10.187 0.848201 5.32768
lowerneck 1.90786 -10.5914 -12.3766
upperneck 2.72503 -14.7914 14.4872
head 2.5138 -7.40248 5.88305
rclavicle 1.08189e-013 -2.48481e-014
rhumerus -21.8371 27.0749 -60.8508
rradius 97.2021
rwrist 1.74747
rhand -24.6274 -41.3727
rfingers 7.12502
rthumb 1.87146 -71.3443
lclavicle 1.08189e-013 -2.48481e-014
lhumerus -32.7474 -32.464 90.1968
lradius 105.317
lwrist 37.0986
lhand -6.86473 6.85676
lfingers 7.12502
lthumb 19.0009 35.9487
rfemur -52.4918 -21.6913 15.6248
rtibia 57.7842
rfoot -8.94694 13.4735
rtoes 4.67583
lfemur -14.5572 9.06056 -1.44067
ltibia 53.1291
lfoot -23.3036 24.4845
ltoes -11.8336
973
root -6.43474 14.9737 15.9608 6.07667 34.0404 -1.80113
lowerback 14.0637 1.38852 -6.54837
upperback -1.87993 0.865644 1.64389
thorax -10.1214 0.848483 5.31541
lowerneck 1.77945 -10.4965 -12.3103
upperneck 2.76147 -14.6411 14.2501
head 2.50174 -7.32422 5.80478
rclavicle 1.01902e-013 -3.42904e-014
rhumerus -21.632 26.9781 -60.7143
rradius 97.0635
rwrist 1.61055
rhand -24.6169 -41.1727
rfingers 7.12502
rthumb 1.88156 -71.1441
lclavicle 1.01902e-013 -3.42904e-014
lhumerus -32.6539 -32.5198 90.3354
lradius 105.414
lwrist 37.2104
lhand -6.85263 7.18308
lfingers 7.12502
lthumb 19.0125 36.2738
rfemur -52.6975 -21.491 15.6218
rtibia 58.0852
rfoot -8.81795 14.1212
rtoes 6.19688
lfemur -13.5356 8.36038 -1.50215
ltibia 52.5486
lfoot -23.3067 24.1703
ltoes -12.4217
974
root -6.41585 14.9656 16.0031 6.20166 33.2441 -1.45306
lowerback 14.0656 1.39606 -6.61113
upperback -1.93269 0.854185 1.55447
thorax -10.1795 0.846888 5.25567
lowerneck 1.70112 -10.3692 -12.1875
upperneck 2.86624 -14.4556 13.9835
head 2.49091 -7.22921 5.71333
rclavicle 1.20476e-013 1.05356e-014
rhumerus -21.6169 26.9281 -60.7221
rradius 96.9549
rwrist 1.60007
rhand -24.5477 -41.0272
rfingers 7.12502
rthumb 1.94836 -70.9981
lclavicle 1.20476e-013 1.05356e-014
lhumerus -32.6807 -32.6281 90.4892
lradius 105.472
lwrist 37.2954
lhand -6.99614 7.3485
lfingers 7.12502
lthumb 18.8745 36.4528
rfemur -52.9108 -21.3106 15.5126
rtibia 58.3857
rfoot -8.69877 14.7564
rtoes 7.58085
lfemur -12.5236 7.65409 -1.69818
ltibia 51.989
lfoot -23.4186 23.8767
ltoes -13.1871
975
root -6.39982 14.9594 16.0458 6.27485 32.5444 -1.30767
lowerback 13.9374 1.37784 -6.56401
upperback -1.9423 0.844678 1.53431
thorax -10.1126 0.836653 5.20839
lowerneck 1.61453 -10.2368 -12.0741
upperneck 2.88148 -14.2571 13.7672
head 2.45875 -7.1284 5.64081
rclavicle 5.89024e-014 2.99171e-014
rhumerus -21.5412 26.8041 -60.6767
rradius 96.8655
rwrist 1.45428
rhand -24.5444 -41.0068
rfingers 7.12502
rthumb 1.95159 -70.9777
lclavicle 5.89024e-014 2.99171e-014
lhumerus -32.5053 -32.7401 90.5611
lradius 105.447
lwrist 37.3465
lhand -7.24326 7.43627
lfingers 7.12502
lthumb 18.6368 36.5635
rfemur -53.1363 -21.063 15.5863
rtibia 58.6635
rfoot -8.6481 15.2173
rtoes 8.47191
lfemur -11.6523 6.95153 -1.71431
ltibia 51.4196
lfoot -23.417 23.6395
ltoes -13.9891
976
root -6.38365 14.9514 16.0881 6.33515 31.8191 -1.22531
lowerback 13.7902 1.3645 -6.5122
upperback -1.97883 0.846291 1.54692
thorax -10.0668 0.834231 5.19209
lowerneck 1.58335 -10.0979 -11.971
upperneck 2.88715 -14.0525 13.5084
head 2.41216 -7.02727 5.56068
rclavicle 2.24502e-014 1.00883e-014
rhumerus -21.457 26.6973 -60.6304
rradius 96.7495
rwrist 1.34616
rhand -24.2995 -40.8339
rfingers 7.12502
rthumb 2.18806 -70.8024
lclavicle 2.24502e-014 1.00883e-014
lhumerus -32.498 -32.7907 90.6761
lradius 105.527
lwrist 37.3811
lhand -7.24722 7.56483
lfingers 7.12502
lthumb 18.633 36.6924
rfemur -53.4096 -20.7725 15.7278
rtibia 58.9278
rfoot -8.59916 15.6117
rtoes 9.30851
lfemur -10.7996 6.31609 -1.70584
ltibia 50.8523
lfoot -23.4363 23.4631
ltoes -14.4753
977
root -6.36472 14.9422 16.1286 6.48309 31.1315 -0.993968
lowerback 13.6091 1.37214 -6.49832
upperback -1.99299 0.86671 1.50526
thorax -9.97892 0.83889 5.13344
lowerneck 1.41419 -10.0221 -12.0296
upperneck 3.03579 -13.9393 13.3495
head 2.46138 -6.96577 5.51652
rclavicle -3.80424e-014 -1.01877e-014
rhumerus -21.2521 26.5857 -60.4868
rradius 96.5277
rwrist 1.19113
rhand -24.1118 -41.1676
rfingers 7.12502
rthumb 2.36939 -71.1342
lclavicle -3.80424e-014 -1.01877e-014
lhumerus -32.3287 -32.9756 90.7606
lradius 105.478
lwrist 37.3037
lhand -7.38181 7.44547
lfingers 7.12502
lthumb 18.5036 36.5854
rfemur -53.6864 -20.5229 15.6936
rtibia 59.2206
rfoot -8.54663 15.9666
rtoes 9.84381
lfemur -9.96817 5.62849 -1.90097
ltibia 50.2793
lfoot -23.4497 23.3635
ltoes -15.0662
